<?xml version="1.0" encoding="UTF-8" standalone="no"?>
<!-- Created with Inkscape (http://www.inkscape.org/) -->

<svg
   width="1020"
   height="327.82947"
   viewBox="0 0 1019.9999 327.82947"
   id="svg2"
   version="1.1"
   xml:space="preserve"
   xmlns="http://www.w3.org/2000/svg"
   xmlns:svg="http://www.w3.org/2000/svg"
   xmlns:rdf="http://www.w3.org/1999/02/22-rdf-syntax-ns#"
   xmlns:cc="http://creativecommons.org/ns#"
   xmlns:dc="http://purl.org/dc/elements/1.1/"><g
     id="layer1"
     transform="matrix(1.5503876,0,0,1.5503876,-126.9057,-522.9709)"
     style="fill:#ffffff"><g
       id="layer2"
       style="fill:#ffffff"
       transform="translate(88.304177,340.54123)"><rect
         style="fill:#e60012;fill-opacity:1;stroke:#067800;stroke-width:0"
         id="rect967"
         width="645"
         height="205"
         x="0"
         y="0" /></g><g
       id="g13605"
       transform="matrix(0,4.2022871,4.2022871,0,347.81712,413.87085)"
       style="fill:#ffffff;fill-opacity:1"><path
         d="M 0,0 C 0,-2.127 0.986,-4.546 2.96,-6.024 L 2.956,-6.023 2.957,-6.024 0.31,-6.023 v -5.073 h 18.474 v 5.072 H 8.272 c -1.892,0 -3.903,1.467 -3.903,4.183 0,2.099 1.46,4.271 3.903,4.271 H 18.784 V 7.503 H 7.332 C 3.083,7.503 0,4.463 0,0"
         style="fill:#ffffff;fill-opacity:1;fill-rule:nonzero;stroke:none"
         id="path13607" /></g><g
       id="g13609"
       transform="matrix(0,4.2022871,4.2022871,0,530.8595,415.17692)"
       style="display:none;fill:#ffffff;fill-opacity:1"><path
         d="M 0,0 12.584,-4.586 0,-9.172 v -5.795 l 18.468,7.601 v 5.559 L 0,5.794 Z"
         style="fill:#ffffff;fill-opacity:1;fill-rule:nonzero;stroke:none"
         id="path13611" /></g><g
       id="g13613"
       transform="matrix(0,4.2022871,4.2022871,0,237.54658,438.56391)"
       style="fill:#ffffff;fill-opacity:1"><path
         d="m 0,0 c -1.16,0.864 -1.841,2.24 -1.841,3.902 0,1.828 1.044,3.215 2.585,3.932 L 4.421,-1.029 C 2.534,-1.271 1.058,-0.788 0,0 M 7.228,9.746 C 8.808,7.611 9.185,6.391 9.185,4.444 9.185,2.692 8.641,1.32 7.687,0.353 L 2.307,13.322 C 0.302,13.039 -1.489,12.278 -2.851,11.107 -4.83,9.403 -5.877,6.881 -5.877,3.81 c 0,-5.578 4.115,-9.784 9.55,-9.784 5.576,0 9.549,4.216 9.549,10.343 0,3.433 -1.627,6.943 -3.528,8.585 z"
         style="fill:#ffffff;fill-opacity:1;fill-rule:nonzero;stroke:none"
         id="path13615" /></g><g
       id="g13617"
       transform="matrix(0,4.2022871,4.2022871,0,210.41031,473.23235)"
       style="fill:#ffffff;fill-opacity:1"><path
         d="m 0,0 v -11.53 h -19.341 v -5.142 H 4.658 V 0 Z"
         style="fill:#ffffff;fill-opacity:1;fill-rule:nonzero;stroke:none"
         id="path13619" /></g><g
       id="g13621"
       transform="matrix(0,4.2022871,4.2022871,0,639.39539,432.13483)"
       style="fill:#ffffff;fill-opacity:1"><path
         d="m 0,0 c 0,-2.833 2.147,-4.89 5.201,-4.89 2.916,0 5.201,2.179 5.201,4.958 0,2.834 -2.206,4.89 -5.201,4.89 C 2.285,4.958 0,2.78 0,0 m 14.749,0 c 0,-5.548 -4.133,-9.895 -9.548,-9.895 -5.354,0 -9.548,4.377 -9.548,9.963 0,5.548 4.133,9.894 9.548,9.894 5.353,0 9.548,-4.376 9.548,-9.962"
         style="fill:#ffffff;fill-opacity:1;fill-rule:nonzero;stroke:none"
         id="path13623" /></g><g
       id="g13625"
       transform="matrix(0,4.2022871,4.2022871,0,429.35787,432.13483)"
       style="fill:#ffffff;fill-opacity:1"><path
         d="m 0,0 c 0,-2.833 2.147,-4.889 5.201,-4.889 2.916,0 5.201,2.178 5.201,4.958 0,2.833 -2.206,4.889 -5.201,4.889 C 2.285,4.958 0,2.78 0,0 m 14.749,0 c 0,-5.548 -4.133,-9.894 -9.548,-9.894 -5.354,0 -9.548,4.376 -9.548,9.963 0,5.547 4.133,9.894 9.548,9.894 5.353,0 9.548,-4.377 9.548,-9.963"
         style="fill:#ffffff;fill-opacity:1;fill-rule:nonzero;stroke:none"
         id="path13627" /></g><g
       aria-label="w"
       id="text2430"
       style="font-weight:bold;font-size:161.592px;font-family:'Nimbus Sans';-inkscape-font-specification:'Nimbus Sans Bold';stroke:#067800;stroke-width:0"><path
         d="m 470.1251,414.40089 h 23.75402 l 13.08895,49.60874 h 1.13115 l 15.67442,-49.60874 h 21.81492 l 15.83601,49.60874 h 1.13115 l 12.92736,-49.60874 h 23.43084 l -25.36995,79.18007 H 550.7595 l -15.83601,-49.93192 h -1.13115 l -15.83601,49.93192 h -22.46129 z"
         style="font-family:'Product Sans';-inkscape-font-specification:'Product Sans Bold'"
         id="path1310" /></g></g><defs
     id="defs4" /><metadata
     id="metadata7"><rdf:RDF><cc:Work
         rdf:about=""><dc:format>image/svg+xml</dc:format><dc:type
           rdf:resource="http://purl.org/dc/dcmitype/StillImage" /></cc:Work></rdf:RDF></metadata></svg>
